<svg xmlns="http://www.w3.org/2000/svg" width="48" height="48" viewBox="0 0 36 36" preserveAspectRatio="xMidYMid meet" version="1.0">
  <defs>
    <clipPath id="0c1e90fbe4">
      <path d="M 2.304688 0 L 33.683594 0 L 33.683594 35 L 2.304688 35 Z M 2.304688 0 " clipRule="nonzero"/>
    </clipPath>
  </defs>
  <g clipPath="url(#0c1e90fbe4)">
    <path fill="#10B981" d="M 15.675781 -0.0117188 C 15.269531 -0.00390625 14.945312 0.328125 14.953125 0.734375 L 14.953125 5.128906 C 14.949219 5.394531 15.085938 5.640625 15.316406 5.773438 C 15.546875 5.90625 15.824219 5.90625 16.054688 5.773438 C 16.285156 5.640625 16.421875 5.394531 16.417969 5.128906 L 16.417969 0.734375 C 16.421875 0.535156 16.34375 0.34375 16.203125 0.203125 C 16.0625 0.0625 15.871094 -0.015625 15.675781 -0.0117188 Z M 9.085938 2.191406 C 8.785156 2.191406 8.519531 2.371094 8.40625 2.648438 C 8.292969 2.925781 8.359375 3.242188 8.574219 3.449219 L 11.503906 6.378906 C 11.6875 6.570312 11.960938 6.648438 12.21875 6.582031 C 12.476562 6.515625 12.675781 6.316406 12.742188 6.058594 C 12.808594 5.800781 12.730469 5.527344 12.539062 5.34375 L 9.609375 2.414062 C 9.472656 2.269531 9.285156 2.191406 9.085938 2.191406 Z M 22.261719 2.191406 C 22.070312 2.195312 21.890625 2.277344 21.761719 2.414062 L 18.828125 5.34375 C 18.636719 5.527344 18.5625 5.800781 18.628906 6.058594 C 18.695312 6.316406 18.894531 6.515625 19.152344 6.582031 C 19.40625 6.648438 19.683594 6.570312 19.867188 6.378906 L 22.796875 3.449219 C 23.011719 3.238281 23.078125 2.917969 22.957031 2.640625 C 22.839844 2.359375 22.566406 2.179688 22.261719 2.191406 Z M 29.730469 2.9375 C 29.011719 2.9375 28.289062 3.207031 27.746094 3.753906 L 14.386719 17.117188 C 14.164062 16.714844 14.058594 16.5 13.648438 15.796875 C 12.96875 14.636719 12.207031 13.382812 11.519531 12.6875 C 10.460938 11.628906 8.996094 10.898438 7.621094 10.523438 C 6.9375 10.335938 6.273438 10.238281 5.667969 10.261719 C 5.0625 10.285156 4.472656 10.414062 4.027344 10.855469 L 2.714844 12.171875 C 2.429688 12.457031 2.429688 12.925781 2.714844 13.210938 L 6.734375 17.230469 L 9.863281 26.613281 C 9.898438 26.722656 9.960938 26.816406 10.039062 26.898438 L 15.792969 32.652344 C 18.15625 35.015625 22.007812 35.015625 24.371094 32.652344 L 25.636719 31.382812 L 25.332031 31.382812 C 25.527344 31.382812 25.714844 31.304688 25.851562 31.167969 L 32.445312 24.574219 C 33.53125 23.484375 33.53125 21.695312 32.445312 20.605469 C 32.007812 20.167969 31.453125 19.957031 30.882812 19.871094 C 31.230469 18.878906 31.035156 17.730469 30.246094 16.941406 C 29.808594 16.503906 29.253906 16.292969 28.683594 16.207031 C 29.035156 15.214844 28.835938 14.066406 28.050781 13.277344 C 27.699219 12.929688 27.269531 12.734375 26.824219 12.609375 L 31.710938 7.71875 C 32.800781 6.628906 32.800781 4.84375 31.710938 3.753906 C 31.167969 3.207031 30.445312 2.9375 29.730469 2.9375 Z M 29.730469 4.390625 C 30.070312 4.390625 30.410156 4.523438 30.675781 4.789062 C 31.207031 5.320312 31.207031 6.152344 30.675781 6.683594 L 24.082031 13.277344 C 23.804688 13.566406 23.8125 14.023438 24.09375 14.304688 C 24.375 14.585938 24.832031 14.59375 25.121094 14.316406 C 25.648438 13.785156 26.484375 13.785156 27.011719 14.316406 C 27.542969 14.84375 27.542969 15.679688 27.011719 16.210938 L 26.28125 16.941406 C 26.003906 17.230469 26.007812 17.6875 26.292969 17.96875 C 26.574219 18.25 27.027344 18.257812 27.316406 17.980469 C 27.847656 17.449219 28.683594 17.449219 29.210938 17.980469 C 29.742188 18.507812 29.742188 19.34375 29.210938 19.875 L 28.480469 20.605469 C 28.199219 20.894531 28.207031 21.351562 28.488281 21.632812 C 28.769531 21.914062 29.226562 21.921875 29.515625 21.644531 C 30.042969 21.113281 30.878906 21.113281 31.410156 21.644531 C 31.9375 22.171875 31.9375 23.007812 31.410156 23.539062 L 23.332031 31.617188 C 21.53125 33.417969 18.628906 33.417969 16.828125 31.617188 L 11.199219 25.980469 L 8.070312 16.601562 C 8.035156 16.496094 7.972656 16.398438 7.894531 16.316406 L 4.269531 12.6875 L 5.0625 11.894531 C 5.097656 11.859375 5.324219 11.742188 5.726562 11.726562 C 6.125 11.714844 6.664062 11.78125 7.238281 11.9375 C 8.386719 12.25 9.671875 12.914062 10.484375 13.726562 C 10.871094 14.113281 11.722656 15.410156 12.382812 16.535156 C 13.042969 17.667969 13.574219 18.664062 13.574219 18.664062 C 13.683594 18.871094 13.882812 19.007812 14.113281 19.042969 C 14.339844 19.078125 14.574219 19 14.738281 18.835938 L 28.78125 4.789062 C 29.046875 4.523438 29.386719 4.390625 29.730469 4.390625 Z M 29.730469 4.390625" fillOpacity="1" fillRule="nonzero"/>
  </g>
</svg>